<?xml version="1.0" encoding="iso-8859-1"?>
<!-- Uploaded to: SVG Repo, www.svgrepo.com, Generator: SVG Repo Mixer Tools -->
<svg fill="#000000" height="800px" width="800px" version="1.1" id="Layer_1" xmlns="http://www.w3.org/2000/svg" xmlns:xlink="http://www.w3.org/1999/xlink" 
	 viewBox="0 0 512 512" xml:space="preserve">
<g>
	<g>
		<path d="M452.965,325.53l-41.997-95.102h-0.99c-21.977,0-39.857-17.879-39.857-39.857v-16.847
			c0-10.451-8.503-18.953-18.953-18.953H160.831c-10.451,0-18.953,8.503-18.953,18.953v16.847c0,21.977-17.879,39.857-39.857,39.857
			h-0.999L59.026,325.53c-10.122,22.923-15.255,47.253-15.255,72.315v31.35c0,16.031,13.042,29.072,29.072,29.072h366.303
			c16.031,0,29.073-13.042,29.073-29.072v-31.35C468.221,372.785,463.088,348.455,452.965,325.53z M190.087,403.021
			c-11.531,0-20.88-9.349-20.88-20.88c0-11.531,9.349-20.88,20.88-20.88c11.533,0,20.88,9.349,20.88,20.88
			C210.967,393.672,201.619,403.021,190.087,403.021z M190.087,339.553c-11.531,0-20.88-9.349-20.88-20.88
			c0-11.531,9.349-20.88,20.88-20.88c11.533,0,20.88,9.349,20.88,20.88C210.967,330.205,201.619,339.553,190.087,339.553z
			 M190.087,276.086c-11.531,0-20.88-9.349-20.88-20.88c0-11.531,9.349-20.88,20.88-20.88c11.533,0,20.88,9.349,20.88,20.88
			C210.967,266.737,201.619,276.086,190.087,276.086z M255.999,403.021c-11.531,0-20.88-9.349-20.88-20.88
			c0-11.531,9.349-20.88,20.88-20.88c11.531,0,20.88,9.349,20.88,20.88C276.88,393.672,267.532,403.021,255.999,403.021z
			 M255.999,339.553c-11.531,0-20.88-9.349-20.88-20.88c0-11.531,9.349-20.88,20.88-20.88c11.531,0,20.88,9.349,20.88,20.88
			C276.88,330.205,267.532,339.553,255.999,339.553z M255.999,276.086c-11.531,0-20.88-9.349-20.88-20.88
			c0-11.531,9.349-20.88,20.88-20.88c11.531,0,20.88,9.349,20.88,20.88C276.88,266.737,267.532,276.086,255.999,276.086z
			 M321.913,403.021c-11.533,0-20.88-9.349-20.88-20.88c0-11.531,9.349-20.88,20.88-20.88c11.531,0,20.88,9.349,20.88,20.88
			C342.793,393.672,333.444,403.021,321.913,403.021z M321.913,339.553c-11.533,0-20.88-9.349-20.88-20.88
			c0-11.531,9.349-20.88,20.88-20.88c11.531,0,20.88,9.349,20.88,20.88C342.793,330.205,333.444,339.553,321.913,339.553z
			 M321.913,276.086c-11.533,0-20.88-9.349-20.88-20.88c0-11.531,9.349-20.88,20.88-20.88c11.531,0,20.88,9.349,20.88,20.88
			C342.793,266.737,333.444,276.086,321.913,276.086z"/>
	</g>
</g>
<g>
	<g>
		<path d="M378.582,53.733H133.418c-58.149,0-107.721,37.399-125.948,89.404h119.732c8.325-9.145,20.318-14.893,33.63-14.893
			h190.336c13.312,0,25.305,5.749,33.63,14.893h119.732C486.303,91.131,436.731,53.733,378.582,53.733z"/>
	</g>
</g>
<g>
	<g>
		<path d="M510.384,166.407H396.052c0.387,2.383,0.597,4.826,0.597,7.317v16.847c0,7.35,5.979,13.329,13.329,13.329h85.273
			c9.236,0,16.75-7.514,16.75-16.75C512,180.095,511.445,173.168,510.384,166.407z"/>
	</g>
</g>
<g>
	<g>
		<path d="M1.615,166.406C0.555,173.168,0,180.095,0,187.151c0,9.236,7.514,16.75,16.75,16.75h85.271
			c7.35,0,13.329-5.979,13.329-13.329v-16.847c0-2.491,0.209-4.934,0.597-7.318H1.615z"/>
	</g>
</g>
</svg>