<?xml version="1.0" encoding="utf-8"?>
<!-- Svg Vector Icons : http://www.onlinewebfonts.com/icon -->
<!DOCTYPE svg PUBLIC "-//W3C//DTD SVG 1.1//EN" "http://www.w3.org/Graphics/SVG/1.1/DTD/svg11.dtd">
<svg version="1.1" xmlns="http://www.w3.org/2000/svg" xmlns:xlink="http://www.w3.org/1999/xlink" x="0px" y="0px" viewBox="0 0 256 256" enable-background="new 0 0 256 256" xml:space="preserve">
<metadata> Svg Vector Icons : http://www.onlinewebfonts.com/icon </metadata>
<g><g><path fill="#000000" d="M175.9,135.3c30.5,0,55.4,24.9,55.4,55.4c0,30.5-24.9,55.3-55.4,55.3c-30.5,0-55.4-24.9-55.4-55.4C120.6,160.1,145.1,135.3,175.9,135.3z M175.9,148.3c23.5,0,42.7,19.2,42.7,42.7s-19.2,42.6-42.7,42.6c-23.5,0-42.7-19.2-42.7-42.7C133.3,167.4,152.4,148.3,175.9,148.3z"/><path fill="#000000" d="M187.5,212c1.3,0,2.7-0.5,3.5-1.6c1.9-1.9,1.9-5.4,0-7.3l-13.5-13.8v-23.2c0-3-2.2-5.1-5.1-5.1c-2.7,0-5.1,2.4-5.1,5.1v27.5l16.7,17C185.1,211.4,186.5,212,187.5,212z"/><path fill="#000000" d="M188.6,10H46.1c-11.9,0-21.3,9.4-21.3,21.3V223c0,11.9,9.4,21.3,21.3,21.3h76.1c4.6,0,8.4-3.8,8.1-8.6c-0.3-4.3-4-7.6-8.6-7.6H46c-2.7,0-5.1-2.2-5.1-5.1V31.3c0-2.7,2.2-5.1,5.1-5.1h142.6c2.7,0,5.1,2.4,5.1,5.1v87c0,4.6,3.5,8.1,8.1,8.1c4.6,0,8.1-3.5,8.1-8.1v-87C210,19.4,200.5,10,188.6,10z"/><path fill="#000000" d="M72,83.4L72,83.4c-1.3,0-2.7-0.5-3.8-1.6L53.6,67.3c-2.2-2.2-2.2-5.4,0-7.6c2.2-2.2,5.4-2.2,7.6,0L72,70.5l23.2-23.2c2.2-2.2,5.4-2.2,7.6,0c2.2,2.2,2.2,5.4,0,7.6l-27,27C74.7,82.9,73.3,83.4,72,83.4z"/><path fill="#000000" d="M72,134.2c-1.3,0-2.7-0.5-3.8-1.6L53.6,118c-2.2-2.2-2.2-5.4,0-7.6c2.2-2.2,5.4-2.2,7.6,0L72,121.3L95.2,98c2.2-2.2,5.4-2.2,7.6,0c2.2,2.2,2.2,5.4,0,7.6l-27,27C74.7,133.7,73.3,134.2,72,134.2z"/><path fill="#000000" d="M72,183.4c-1.3,0-2.7-0.5-3.8-1.6l-14.6-14.6c-2.2-2.2-2.2-5.4,0-7.6s5.4-2.2,7.6,0L72,170.4l23.2-23.2c2.2-2.2,5.4-2.2,7.6,0c2.2,2.2,2.2,5.4,0,7.6l-27,26.9C74.7,183.1,73.3,183.4,72,183.4z"/><path fill="#000000" d="M175.9,69.9h-52.4c-3,0-5.4-2.4-5.4-5.4c0-3,2.4-5.4,5.4-5.4h52.4c3,0,5.4,2.4,5.4,5.4C181.3,67.5,178.9,69.9,175.9,69.9z"/><path fill="#000000" d="M175.9,115.8h-52.4c-3,0-5.4-2.4-5.4-5.4c0-3,2.4-5.4,5.4-5.4h52.4c3,0,5.4,2.4,5.4,5.4C181.3,113.4,178.9,115.8,175.9,115.8z"/></g></g>
</svg>