<?xml version="1.0" standalone="no"?>
<!DOCTYPE svg PUBLIC "-//W3C//DTD SVG 20010904//EN"
 "http://www.w3.org/TR/2001/REC-SVG-20010904/DTD/svg10.dtd">
<svg version="1.0" xmlns="http://www.w3.org/2000/svg"
 width="1280.000000pt" height="916.000000pt" viewBox="0 0 1280.000000 916.000000"
 preserveAspectRatio="xMidYMid meet">
<metadata>
Created by potrace 1.15, written by Peter Selinger 2001-2017
</metadata>
<g transform="translate(0.000000,916.000000) scale(0.100000,-0.100000)"
fill="#000000" stroke="none">
<path d="M9135 9150 c-22 -5 -299 -54 -615 -109 -316 -55 -613 -107 -660 -115
-47 -9 -267 -47 -490 -86 -223 -39 -456 -80 -517 -90 -62 -11 -345 -61 -628
-110 -283 -49 -567 -99 -630 -110 -277 -49 -1165 -203 -1321 -230 -353 -60
-2361 -411 -3489 -610 -308 -54 -611 -107 -672 -117 l-113 -18 0 -97 0 -97 73
-62 74 -61 6 -1296 c4 -714 7 -1808 7 -2432 l0 -1135 155 -127 155 -128 208
48 207 48 5 2202 5 2202 815 -673 815 -673 5 -2495 5 -2496 172 -142 172 -142
228 49 228 48 3 2506 2 2505 63 11 c34 5 332 58 662 117 330 58 1032 183 1560
276 1140 202 1906 337 2596 459 278 50 511 90 518 90 8 0 11 -290 11 -1132 l1
-1133 155 -129 156 -129 206 44 207 44 3 925 c1 509 3 1087 5 1285 l2 359
1190 211 1190 210 3 -2357 2 -2356 143 -118 c78 -65 151 -125 162 -135 19 -16
30 -15 230 29 l210 47 3 2512 2 2512 75 12 c41 7 79 16 85 19 5 3 10 59 11
124 l1 118 -1793 1069 c-987 588 -1801 1068 -1809 1068 -8 -1 -33 -5 -55 -9z"/>
</g>
</svg>
